<svg viewBox="38.5 24.5 203.00000000000003 258.99999999999994" xmlns="http://www.w3.org/2000/svg" xmlns:xlink="http://www.w3.org/1999/xlink" xmlns:blush="http://design.blush" overflow="visible" width="203.00000000000003px" height="258.99999999999994px"><defs><path d="M83,36.3476251 C83,52.6289957 105.161905,65.8276544 132.5,65.8276544 C159.838095,65.8276544 182,52.6289957 182,36.3476251 C182,34.9853134 181.844841,33.6445843 181.544472,32.3313638 C210.784239,41.4879251 232,68.792221 232,101.051724 L232,110 L32,110 L32,101.051724 C32,68.3970853 53.7386736,40.8197864 83.5337207,32.0021267 C83.1821692,33.4207025 83,34.871494 83,36.3476251 Z" id="masteravataaardefault-path-1"/></defs><g id="Master/Avataaar/Default" stroke="none" stroke-width="1" fill="none" fill-rule="evenodd" blush:has-customizable-colors="true" blush:viewBox="39.19999999999999 19.600000000000023 201.60000000000002 260.3999999999999" blush:i="0"><path d="M140,36 C170.927946,36 196,61.072054 196,92 L196.000809,98.1660527 C201.675838,99.1185422 206,104.05429 206,110 L206,124 C206,130.052417 201.519235,135.058294 195.693975,135.881364 C193.627928,155.686472 181.237929,172.421678 164.001014,180.610469 L164,199 L168,199 C207.764502,199 240,231.235498 240,271 L240,280 L40,280 L40,271 C40,231.235498 72.235498,199 112,199 L116,199 L115.999984,180.610943 C98.7625487,172.422324 86.3721119,155.686854 84.3051107,135.88097 C78.480765,135.058294 74,130.052417 74,124 L74,110 C74,104.053942 78.3246685,99.1179645 84.0001873,98.1658855 L84,92 C84,61.072054 109.072054,36 140,36 Z" id="Body" fill="#eac7a8" blush:color="Skin-500" blush:i="0.0"/><path d="M115.998216,180.610103 C123.272713,184.066155 131.410519,186 140,186 C148.588785,186 156.725969,184.066469 164.000016,180.610943 L164.000353,185.94579 C157.441661,190.398372 149.524652,193 141,193 C131.589035,193 122.918635,189.829263 115.998807,184.497795 Z" id="shadow" fill-opacity=".24" fill="#000" blush:i="0.1"/><g id="Nose" transform="translate(112.000000, 122.000000) scale(1 1)" fill="#000" blush:width="56" blush:height="24" blush:component="Nose" blush:i="0.2" blush:value="Medium" blush:viewBox="15.959999999999994 7.794392523364486 24.07999999999999 8.411214953271022"><g id="Nose/Medium" stroke="none" stroke-width="1" fill="none" fill-rule="evenodd" blush:viewBox="15.959999999999994 7.794392523364486 24.07999999999999 8.411214953271022" blush:i="0.2.0"><path d="M16,8 C16,12.418278 21.372583,16 28,16 L28,16 C34.627417,16 40,12.418278 40,8" id="Nose" fill-opacity=".16" fill="#000" blush:i="0.2.0.0"/></g></g><g id="Clothing" transform="translate(8.000000, 170.000000) scale(1 1)" blush:width="264" blush:height="110" blush:component="Clothing" blush:i="0.3" blush:value="Shirt Scoop Neck" blush:viewBox="31.67999999999998 31.201923076923066 200.64000000000004 79.32692307692307"><defs blush:i="0.3.0"><path d="M83,36.3476251 C83,52.6289957 105.161905,65.8276544 132.5,65.8276544 C159.838095,65.8276544 182,52.6289957 182,36.3476251 C182,34.9853134 181.844841,33.6445843 181.544472,32.3313638 C210.784239,41.4879251 232,68.792221 232,101.051724 L232,110 L32,110 L32,101.051724 C32,68.3970853 53.7386736,40.8197864 83.5337207,32.0021267 C83.1821692,33.4207025 83,34.871494 83,36.3476251 Z" id="clothingshirt-scoop-neck-path-1" blush:i="0.3.0.0"/></defs><g id="Clothing/Shirt Scoop Neck" stroke="none" stroke-width="1" fill="none" fill-rule="evenodd" blush:viewBox="31.67999999999998 31.201923076923066 200.64000000000004 79.32692307692307" blush:i="0.3.1"><mask id="clothingshirt-scoop-neck-mask-2" fill="#fff" blush:i="0.3.1.0"><use xlink:href="#clothingshirt-scoop-neck-path-1" blush:i="0.3.1.0.0"/></mask><use id="Clothes" fill="#3a6351" xlink:href="#clothingshirt-scoop-neck-path-1" blush:color="Top-500" blush:i="0.3.1.1"/></g></g><g id="Mouth" transform="translate(86.000000, 134.000000) scale(1 1)" fill="#000" blush:width="108" blush:height="44" blush:component="Mouth" blush:i="0.4" blush:value="Twinkle" blush:viewBox="39.96000000000001 13.911764705882348 28.080000000000027 11.323529411764714"><g id="Mouth/Twinkle" stroke="none" stroke-width="1" fill="none" fill-rule="evenodd" blush:viewBox="39.96000000000001 13.911764705882348 28.080000000000027 11.323529411764714" blush:i="0.4.0"><path d="M40,16 C40,21.371763 46.1581544,25 54,25 C61.8418456,25 68,21.371763 68,16 C68,14.8954305 67.050301,14 66,14 C64.7072748,14 64.1302316,14.9051755 64,16 C62.7575758,18.9378973 59.6832595,20.7163149 54,21 C48.3167405,20.7163149 45.2424242,18.9378973 44,16 C43.8697684,14.9051755 43.2927252,14 42,14 C40.949699,14 40,14.8954305 40,16 Z" id="Mouth" fill-opacity=".6" fill="#000" fill-rule="nonzero" blush:i="0.4.0.0"/></g></g><g id="Eyes" transform="translate(84.000000, 90.000000) scale(1 1)" fill="#000" blush:width="112" blush:height="44" blush:component="Eyes" blush:i="0.5" blush:value="Side" blush:viewBox="15.679999999999993 15.826530612244895 80.64000000000001 14.591836734693882"><g id="Eyes/Side" stroke="none" stroke-width="1" fill="none" fill-rule="evenodd" blush:viewBox="15.679999999999993 15.826530612244895 80.64000000000001 14.591836734693882" blush:i="0.5.0"><path d="M26.9975803,16 C30.5023373,16 33.8908881,17.3142215 36.0178027,19.5426914 C36.76432,20.2169977 37.3413788,21.076429 37.6755948,22.0487876 C37.7255661,22.1661456 37.7719796,22.285947 37.8153518,22.4071242 C37.9093375,22.6697105 37.9470658,22.9204105 37.9396792,23.1420431 C37.9792021,23.4217112 38,23.7084268 38,24 C38,27.3137085 35.3137085,30 32,30 C28.6862915,30 26,27.3137085 26,24 C26,22.6248836 26.4625977,21.3578126 27.2406617,20.3459186 C27.1600773,20.3443723 27.0789132,20.3437884 26.9975803,20.3437884 C23.2572061,20.3437884 19.8737584,21.5787519 17.4375392,23.5716412 C16.5467928,24.3002944 15.6201012,23.5583844 16.1601674,22.4473116 C18.006676,18.648508 22.1644225,16 26.9975803,16 Z" id="Eye" fill-opacity=".6" fill="#000" blush:i="0.5.0.0"/><path d="M84.9975803,16 C88.5023373,16 91.8908881,17.3142215 94.0178027,19.5426914 C94.76432,20.2169977 95.3413788,21.076429 95.6755948,22.0487876 C95.7255661,22.1661456 95.7719796,22.285947 95.8153518,22.4071242 C95.9093375,22.6697105 95.9470658,22.9204105 95.9396792,23.1420431 C95.9792021,23.4217112 96,23.7084268 96,24 C96,27.3137085 93.3137085,30 90,30 C86.6862915,30 84,27.3137085 84,24 C84,22.6248836 84.4625977,21.3578126 85.2406617,20.3459186 C85.1600773,20.3443723 85.0789132,20.3437884 84.9975803,20.3437884 C81.2572061,20.3437884 77.8737584,21.5787519 75.4375392,23.5716412 C74.5467928,24.3002944 73.6201012,23.5583844 74.1601674,22.4473116 C76.006676,18.648508 80.1644225,16 84.9975803,16 Z" id="Eye" fill-opacity=".6" fill="#000" blush:i="0.5.0.1"/></g></g><g id="Eyebrow/Outline" transform="translate(84.000000, 82.000000) scale(1 1)" fill="#000" blush:width="112" blush:height="24" blush:component="Eyebrow/Outline" blush:i="0.6" blush:value="Raised Excited" blush:viewBox="11.760000000000005 -0.05607476635514175 88.48000000000002 19.065420560747665"><g id="Eyebrow/Outline/Raised Excited" stroke="none" stroke-width="1" fill="none" fill-rule="evenodd" blush:viewBox="11.760000000000005 -0.05607476635514175 88.48000000000002 19.065420560747665" blush:i="0.6.0"><g id="I-Browse" transform="translate(12.000000, 0.000000)" fill="#000" fill-opacity=".6" fill-rule="nonzero" blush:i="0.6.0.0"><path d="M3.97579559,17.1279169 C5.47099148,7.60476158 18.0585488,1.10867597 27.1635167,5.30104271 C28.1668367,5.76301969 29.3546946,5.32417444 29.8166716,4.32085442 C30.2786486,3.3175344 29.8398033,2.12967649 28.8364833,1.66769952 C17.3488212,-3.62177466 1.93575948,4.3324746 0.0242044059,16.507492 C-0.147121205,17.5986938 0.598585765,18.6221744 1.68978754,18.7935 C2.78098932,18.9648257 3.80446998,18.2191187 3.97579559,17.1279169 Z" id="Eyebrow" blush:i="0.6.0.0.0"/><path d="M61.9757956,17.1279169 C63.4709915,7.60476158 76.0585488,1.10867597 85.1635167,5.30104271 C86.1668367,5.76301969 87.3546946,5.32417444 87.8166716,4.32085442 C88.2786486,3.3175344 87.8398033,2.12967649 86.8364833,1.66769952 C75.3488212,-3.62177466 59.9357595,4.3324746 58.0242044,16.507492 C57.8528788,17.5986938 58.5985858,18.6221744 59.6897875,18.7935 C60.7809893,18.9648257 61.80447,18.2191187 61.9757956,17.1279169 Z" id="Eyebrow" transform="translate(73.000097, 9.410436) scale(-1, 1) translate(-73.000097, -9.410436)" blush:i="0.6.0.0.1"/></g></g></g><g id="Facial Hair" transform="translate(57.000000, 72.000000) scale(1 1)" fill="#000" blush:width="168" blush:height="152" blush:component="Facial Hair" blush:i="0.7" blush:value="-Blank" blush:viewBox="294 266 0 0"><g id="Facial Hair/Blank" stroke="none" stroke-width="1" fill="none" fill-rule="evenodd" fill-opacity="0" blush:viewBox="294 266 0 0" blush:i="0.7.0"/></g><g id="Hairstyle" transform="translate(7.000000, 0.000000) scale(1 1)" blush:width="266" blush:height="280" blush:component="Hairstyle" blush:i="0.8" blush:value="Short Round" blush:viewBox="73.5 25.200000000000017 118.99999999999993 74.1999999999999"><g id="Hairstyle/Short Round" stroke="none" stroke-width="1" fill="none" fill-rule="evenodd" blush:viewBox="73.5 25.200000000000017 118.99999999999993 74.1999999999999" blush:i="0.8.0"><path d="M167.308863,35.006118 C147.121091,23.3065109 127.128954,25.2219854 112.036894,29.0299707 C96.9448338,32.8379559 88.0168242,43.6513048 80.3566792,59.6480618 C76.5956048,67.5028569 74.3660182,76.7914798 74.0230569,85.4813651 C73.8884429,88.8932666 74.3484305,92.415154 75.267729,95.7003546 C75.6049405,96.9061873 77.4232441,101.086987 77.9224658,97.70885 C78.0885348,96.584253 77.4804043,95.0327505 77.4215529,93.8376154 C77.3444374,92.2693977 77.4273028,90.6807875 77.5341822,89.1149098 C77.7340739,86.1874141 78.2559568,83.3154127 79.1847257,80.524647 C80.5119249,76.5367405 82.2013644,72.212859 84.7874413,68.8480942 C91.1883705,60.5205939 102.268658,60.045883 111.066257,55.4635848 C110.302881,56.8686624 107.359637,59.1432635 108.379389,60.7268592 C109.083576,61.8207003 111.749474,61.4890712 113.022219,61.4539693 C116.370996,61.3623702 119.734993,60.7796791 123.042844,60.306974 C128.255923,59.5618115 133.140585,58.0517626 138.046555,56.2181078 C142.06299,54.7164165 146.650012,53.3257139 149.66868,50.1404701 C154.539813,55.1881187 160.809849,59.9345599 167.070414,63.1428706 C172.68835,66.0222267 181.748751,67.461069 185.182761,73.3006826 C189.2479,80.2147477 187.37751,88.7073939 188.619138,96.2008069 C189.091302,99.05041 190.164155,98.986558 190.751315,96.4378281 C191.748406,92.1082634 192.219217,87.6102098 191.901961,83.1592929 C191.183568,73.1114668 187.496636,46.7057251 167.308863,35.006118 Z" id="Short-Hair" fill="#2c1b18" blush:color="Hair-500" blush:i="0.8.0.0"/></g></g><g id="Accesories" transform="translate(70.000000, 85.000000) scale(1 1)" blush:width="142" blush:height="54" blush:component="Accesories" blush:i="0.9" blush:value="Prescription 02" blush:viewBox="5.680000000000007 6.394736842105267 130.64000000000004 44.052631578947356"><g id="Accesories/Prescription 02" stroke="none" stroke-width="1" fill="none" fill-rule="evenodd" blush:viewBox="5.680000000000007 6.394736842105267 130.64000000000004 44.052631578947356" blush:i="0.9.0"><g id="Wayfarers" transform="translate(6.000000, 7.000000)" blush:i="0.9.0.0"><path d="M94.5299306,2 L97.5,2 C118.790455,2 126.354091,7.09629136 127.045455,7.77156439 C128.679318,7.77156439 130,9.06150904 130,10.6573466 L130,13.5431288 C130,15.0819721 128.771968,16.3363819 127.219267,16.4240198 L126.612705,16.4391531 C125.44626,16.4830476 122.230186,16.7150617 120.820725,17.9414221 C120.960175,19.434022 121,20.9643151 121,22.5 C121,34.5686429 110.721275,43 96,43 L93.2421498,43 C79.3147125,43 71,35.3359286 71,22.5 C71,20.9522934 71.0404506,19.4100634 71.1814034,17.906131 L69.8004908,17.3608351 C69.5558969,17.2641292 69.0281396,17.090392 68.2963505,16.9099044 C66.256272,16.4067419 64.1589087,16.253569 62.3040836,16.6343084 C61.6235903,16.7739931 60.9922286,16.9836085 60.4128127,17.266732 L58.8308166,18.0394014 C58.9619021,19.5011097 59,20.9979759 59,22.5 C59,34.5686429 48.7212748,43 34,43 L31.2421498,43 C17.3147125,43 9,35.3359286 9,22.5 C9,21.6610668 9.01188509,20.8237427 9.0452193,19.9932548 C8.93099603,19.9593697 8.86363636,19.7504239 8.86363636,19.3146932 C8.86363636,16.8880127 4.68515214,16.5019499 3.35563443,16.4405308 L2.95454545,16.428911 C1.32363636,16.428911 0,15.1389663 0,13.5431288 L0,10.6573466 C0,9.06150904 1.32363636,7.77156439 2.95454545,7.77156439 L3.07093469,7.66991985 C4.26044178,6.70687939 11.8996241,2.09744476 31.8653976,2.00151937 L35.4700694,2 C36.7306767,2 37.9242203,2.0341353 39.0542384,2.10047223 C51.4173567,2.52253128 54.909731,4.23413961 59.8502273,6.6518809 L60.2689233,6.85850899 L60.5639301,6.95819168 C61.3005076,7.19702359 63.0662164,7.70151679 65.0790606,7.76579519 C67.2462948,7.67278567 69.1000195,7.08540191 69.641698,6.89719767 L70.3244551,6.57039601 C75.33305,4.21287789 80.4386483,2.71580366 89.5614746,2.20060541 C91.0895989,2.06864066 92.7423376,2 94.5299306,2 Z M36.1732992,8.00192643 L32.3853606,8 C13.5815608,8 13.0174468,14.4367119 13.0005234,22.7271501 L13,23.5015498 C13,30.5719428 16.116254,39 30.9709365,39 L34,39 C46.3649085,39 55,32.6270373 55,23.5015498 L54.993687,21.7414887 C54.9091306,14.0134217 53.6920357,8.12378857 36.1732992,8.00192643 L36.1732992,8.00192643 Z M97.6146394,8 L94.3853606,8 C75.5815608,8 75.0174468,14.4367119 75.0005234,22.7271501 L75,23.5015498 C75,30.5719428 78.1194833,39 92.9709365,39 L96,39 C108.364909,39 117,32.6270373 117,23.5015498 L116.993351,21.711307 C116.905012,13.9167947 115.643025,8 97.6146394,8 Z" id="Shape" fill-opacity=".16" fill="#000" blush:i="0.9.0.0.0"/><path d="M35.4700694,0 C57.1829942,0 59,10.127 59,20.5 C59,32.5686429 48.7212748,41 34,41 L31.2421498,41 C17.3147125,41 9,33.3359286 9,20.5 C9,10.127 10.8170058,0 32.5299306,0 L35.4700694,0 Z M35.6146394,6 L32.3853606,6 C13,6 13,12.8410159 13,21.5015498 C13,28.5719428 16.116254,37 30.9709365,37 L34,37 C46.3649085,37 55,30.6270373 55,21.5015498 L54.9994766,20.7271501 C54.9825532,12.4367119 54.4184392,6 35.6146394,6 Z" id="Left" fill="#252C2F" fill-rule="nonzero" blush:i="0.9.0.0.1"/><path d="M97.4700694,0 C119.182994,0 121,10.127 121,20.5 C121,32.5686429 110.721275,41 96,41 L93.2421498,41 C79.3147125,41 71,33.3359286 71,20.5 C71,10.127 72.8170058,0 94.5299306,0 L97.4700694,0 Z M97.6146394,6 L94.3853606,6 C75.5815608,6 75.0174468,12.4367119 75.0005234,20.7271501 L75,21.5015498 C75,28.5719428 78.1194833,37 92.9709365,37 L96,37 C108.364909,37 117,30.6270373 117,21.5015498 C117,12.8410159 117,6 97.6146394,6 Z" id="Right" fill="#252C2F" fill-rule="nonzero" blush:i="0.9.0.0.2"/><path d="M2.95454545,5.77156439 C3.64590909,5.09629136 11.2095455,0 32.5,0 C50.3513636,0 54.1302273,1.85267217 59.8502273,4.6518809 L60.2689233,4.85850899 C60.6666014,4.99901896 62.7002447,5.68982981 65.0790606,5.76579519 C67.2462948,5.67278567 69.1000195,5.08540191 69.641698,4.89719767 C76.1703915,1.7220864 82.5610971,0 97.5,0 C118.790455,0 126.354091,5.09629136 127.045455,5.77156439 C128.679318,5.77156439 130,7.06150904 130,8.65734659 L130,11.5431288 C130,13.1389663 128.679318,14.428911 127.045455,14.428911 C127.045455,14.428911 120.143997,14.428911 120.143997,17.3146932 C120.143997,20.2004754 118.181818,13.1389663 118.181818,11.5431288 L118.181818,8.73240251 C114.578575,7.35340151 108.128411,4.78617535 97.5,4.78617535 C85.6584651,4.78617535 79.7610984,6.88602813 74.7022935,8.97112368 L74.7588636,9.10752861 L74.7563667,11.0937608 L72.5391666,16.4436339 L69.8004908,15.3608351 C69.5558969,15.2641292 69.0281396,15.090392 68.2963505,14.9099044 C66.256272,14.4067419 64.1589087,14.253569 62.3040836,14.6343084 C61.6235903,14.7739931 60.9922286,14.9836085 60.4128127,15.266732 L57.7704824,16.5578701 L55.1266751,11.3962031 L55.2440909,9.10175705 L55.3248203,8.90683855 C50.9620526,6.87386374 46.9392639,4.78617535 32.5,4.78617535 C21.8721459,4.78617535 15.422131,7.3524397 11.8181818,8.7314671 L11.8181818,11.5431288 C11.8181818,13.1389663 8.86363636,20.2004754 8.86363636,17.3146932 C8.86363636,14.428911 2.95454545,14.428911 2.95454545,14.428911 C1.32363636,14.428911 0,13.1389663 0,11.5431288 L0,8.65734659 C0,7.06150904 1.32363636,5.77156439 2.95454545,5.77156439 Z" id="Stuff" fill="#252C2F" fill-rule="nonzero" blush:i="0.9.0.0.3"/></g></g></g></g></svg>