<svg viewBox="38.5 14 210.00000000000003 269.5" xmlns="http://www.w3.org/2000/svg" xmlns:xlink="http://www.w3.org/1999/xlink" xmlns:blush="http://design.blush" overflow="visible" width="210.00000000000003px" height="269.5px"><defs><path d="M83,36.3476251 C83,52.6289957 105.161905,65.8276544 132.5,65.8276544 C159.838095,65.8276544 182,52.6289957 182,36.3476251 C182,34.9853134 181.844841,33.6445843 181.544472,32.3313638 C210.784239,41.4879251 232,68.792221 232,101.051724 L232,110 L32,110 L32,101.051724 C32,68.3970853 53.7386736,40.8197864 83.5337207,32.0021267 C83.1821692,33.4207025 83,34.871494 83,36.3476251 Z" id="masteravataaardefault-path-1"/></defs><g id="Master/Avataaar/Default" stroke="none" stroke-width="1" fill="none" fill-rule="evenodd" blush:has-customizable-colors="true" blush:viewBox="39.19999999999999 19.600000000000023 201.60000000000002 260.3999999999999" blush:i="0"><path d="M140,36 C170.927946,36 196,61.072054 196,92 L196.000809,98.1660527 C201.675838,99.1185422 206,104.05429 206,110 L206,124 C206,130.052417 201.519235,135.058294 195.693975,135.881364 C193.627928,155.686472 181.237929,172.421678 164.001014,180.610469 L164,199 L168,199 C207.764502,199 240,231.235498 240,271 L240,280 L40,280 L40,271 C40,231.235498 72.235498,199 112,199 L116,199 L115.999984,180.610943 C98.7625487,172.422324 86.3721119,155.686854 84.3051107,135.88097 C78.480765,135.058294 74,130.052417 74,124 L74,110 C74,104.053942 78.3246685,99.1179645 84.0001873,98.1658855 L84,92 C84,61.072054 109.072054,36 140,36 Z" id="Body" fill="#eac7a8" blush:color="Skin-500" blush:i="0.0"/><path d="M115.998216,180.610103 C123.272713,184.066155 131.410519,186 140,186 C148.588785,186 156.725969,184.066469 164.000016,180.610943 L164.000353,185.94579 C157.441661,190.398372 149.524652,193 141,193 C131.589035,193 122.918635,189.829263 115.998807,184.497795 Z" id="shadow" fill-opacity=".24" fill="#000" blush:i="0.1"/><g id="Nose" transform="translate(112.000000, 122.000000) scale(1 1)" fill="#000" blush:width="56" blush:height="24" blush:component="Nose" blush:i="0.2" blush:value="Medium" blush:viewBox="15.959999999999994 7.794392523364486 24.07999999999999 8.411214953271022"><g id="Nose/Medium" stroke="none" stroke-width="1" fill="none" fill-rule="evenodd" blush:viewBox="15.959999999999994 7.794392523364486 24.07999999999999 8.411214953271022" blush:i="0.2.0"><path d="M16,8 C16,12.418278 21.372583,16 28,16 L28,16 C34.627417,16 40,12.418278 40,8" id="Nose" fill-opacity=".16" fill="#000" blush:i="0.2.0.0"/></g></g><g id="Clothing" transform="translate(8.000000, 170.000000) scale(1 1)" blush:width="264" blush:height="110" blush:component="Clothing" blush:i="0.3" blush:value="Eienstien Sweater" blush:viewBox="31.67999999999998 20.625 200.64000000000004 89.90384615384615"><defs blush:i="0.3.0"><path d="M160,29.0517235 C199.764502,29.0517235 232,61.2872215 232,101.051724 L232,110 L32,110 L32,101.051724 C32,61.2872215 64.235498,29.0517235 104,29.0517235 L105.192363,29.0520252 C105.065349,30.0355191 105,31.0365551 105,32.0517235 C105,45.8588423 117.088312,57.0517235 132,57.0517235 C146.911688,57.0517235 159,45.8588423 159,32.0517235 C159,31.0365551 158.934651,30.0355191 158.807637,29.0520252 L160,29.0517235 Z" id="clothingeienstien-sweater-path-1" blush:i="0.3.0.0"/></defs><g id="Clothing/Eienstien Sweater" stroke="none" stroke-width="1" fill="none" fill-rule="evenodd" blush:viewBox="31.67999999999998 20.625 200.64000000000004 89.90384615384615" blush:i="0.3.1"><mask id="clothingeienstien-sweater-mask-2" fill="#fff" blush:i="0.3.1.0"><use xlink:href="#clothingeienstien-sweater-path-1" blush:i="0.3.1.0.0"/></mask><use id="Clothes" fill="#b2bec3" xlink:href="#clothingeienstien-sweater-path-1" blush:color="Top-500" blush:i="0.3.1.1"/><path d="M118.07795,50.9956082 L117.994,51.0604994 L118,51.0567821 L119,54.207887 L114.42,53.8754994 L108.308702,58.6917545 C101.492447,54.1669919 97.1650762,47.6759622 97.004622,40.4447893 L97,40.027915 C97,32.7399202 101.232581,26.1742662 107.999601,21.5717708 L108,36.8768102 C108,42.7004148 111.977587,47.8531513 118.07795,50.9956082 Z M156.000973,22.2802074 C162.182048,26.8358435 166,33.1060895 166,40.027915 C166,47.2334229 161.862687,53.7328485 155.229194,58.3270307 L149.58,53.8754994 L145,54.207887 L146,51.0567821 L146.006,51.0604994 L145.923049,50.9950934 C152.022847,47.8525885 156,42.7000968 156,36.8768102 Z" id="Collar" fill="#F2F2F2" blush:i="0.3.1.2"/></g></g><g id="Mouth" transform="translate(86.000000, 134.000000) scale(1 1)" fill="#000" blush:width="108" blush:height="44" blush:component="Mouth" blush:i="0.4" blush:value="Twinkle" blush:viewBox="39.96000000000001 13.911764705882348 28.080000000000027 11.323529411764714"><g id="Mouth/Twinkle" stroke="none" stroke-width="1" fill="none" fill-rule="evenodd" blush:viewBox="39.96000000000001 13.911764705882348 28.080000000000027 11.323529411764714" blush:i="0.4.0"><path d="M40,16 C40,21.371763 46.1581544,25 54,25 C61.8418456,25 68,21.371763 68,16 C68,14.8954305 67.050301,14 66,14 C64.7072748,14 64.1302316,14.9051755 64,16 C62.7575758,18.9378973 59.6832595,20.7163149 54,21 C48.3167405,20.7163149 45.2424242,18.9378973 44,16 C43.8697684,14.9051755 43.2927252,14 42,14 C40.949699,14 40,14.8954305 40,16 Z" id="Mouth" fill-opacity=".6" fill="#000" fill-rule="nonzero" blush:i="0.4.0.0"/></g></g><g id="Eyes" transform="translate(84.000000, 90.000000) scale(1 1)" fill="#000" blush:width="112" blush:height="44" blush:component="Eyes" blush:i="0.5" blush:value="Side" blush:viewBox="15.679999999999993 15.826530612244895 80.64000000000001 14.591836734693882"><g id="Eyes/Side" stroke="none" stroke-width="1" fill="none" fill-rule="evenodd" blush:viewBox="15.679999999999993 15.826530612244895 80.64000000000001 14.591836734693882" blush:i="0.5.0"><path d="M26.9975803,16 C30.5023373,16 33.8908881,17.3142215 36.0178027,19.5426914 C36.76432,20.2169977 37.3413788,21.076429 37.6755948,22.0487876 C37.7255661,22.1661456 37.7719796,22.285947 37.8153518,22.4071242 C37.9093375,22.6697105 37.9470658,22.9204105 37.9396792,23.1420431 C37.9792021,23.4217112 38,23.7084268 38,24 C38,27.3137085 35.3137085,30 32,30 C28.6862915,30 26,27.3137085 26,24 C26,22.6248836 26.4625977,21.3578126 27.2406617,20.3459186 C27.1600773,20.3443723 27.0789132,20.3437884 26.9975803,20.3437884 C23.2572061,20.3437884 19.8737584,21.5787519 17.4375392,23.5716412 C16.5467928,24.3002944 15.6201012,23.5583844 16.1601674,22.4473116 C18.006676,18.648508 22.1644225,16 26.9975803,16 Z" id="Eye" fill-opacity=".6" fill="#000" blush:i="0.5.0.0"/><path d="M84.9975803,16 C88.5023373,16 91.8908881,17.3142215 94.0178027,19.5426914 C94.76432,20.2169977 95.3413788,21.076429 95.6755948,22.0487876 C95.7255661,22.1661456 95.7719796,22.285947 95.8153518,22.4071242 C95.9093375,22.6697105 95.9470658,22.9204105 95.9396792,23.1420431 C95.9792021,23.4217112 96,23.7084268 96,24 C96,27.3137085 93.3137085,30 90,30 C86.6862915,30 84,27.3137085 84,24 C84,22.6248836 84.4625977,21.3578126 85.2406617,20.3459186 C85.1600773,20.3443723 85.0789132,20.3437884 84.9975803,20.3437884 C81.2572061,20.3437884 77.8737584,21.5787519 75.4375392,23.5716412 C74.5467928,24.3002944 73.6201012,23.5583844 74.1601674,22.4473116 C76.006676,18.648508 80.1644225,16 84.9975803,16 Z" id="Eye" fill-opacity=".6" fill="#000" blush:i="0.5.0.1"/></g></g><g id="Eyebrow/Outline" transform="translate(84.000000, 82.000000) scale(1 1)" fill="#000" blush:width="112" blush:height="24" blush:component="Eyebrow/Outline" blush:i="0.6" blush:value="Raised Excited" blush:viewBox="11.760000000000005 -0.05607476635514175 88.48000000000002 19.065420560747665"><g id="Eyebrow/Outline/Raised Excited" stroke="none" stroke-width="1" fill="none" fill-rule="evenodd" blush:viewBox="11.760000000000005 -0.05607476635514175 88.48000000000002 19.065420560747665" blush:i="0.6.0"><g id="I-Browse" transform="translate(12.000000, 0.000000)" fill="#000" fill-opacity=".6" fill-rule="nonzero" blush:i="0.6.0.0"><path d="M3.97579559,17.1279169 C5.47099148,7.60476158 18.0585488,1.10867597 27.1635167,5.30104271 C28.1668367,5.76301969 29.3546946,5.32417444 29.8166716,4.32085442 C30.2786486,3.3175344 29.8398033,2.12967649 28.8364833,1.66769952 C17.3488212,-3.62177466 1.93575948,4.3324746 0.0242044059,16.507492 C-0.147121205,17.5986938 0.598585765,18.6221744 1.68978754,18.7935 C2.78098932,18.9648257 3.80446998,18.2191187 3.97579559,17.1279169 Z" id="Eyebrow" blush:i="0.6.0.0.0"/><path d="M61.9757956,17.1279169 C63.4709915,7.60476158 76.0585488,1.10867597 85.1635167,5.30104271 C86.1668367,5.76301969 87.3546946,5.32417444 87.8166716,4.32085442 C88.2786486,3.3175344 87.8398033,2.12967649 86.8364833,1.66769952 C75.3488212,-3.62177466 59.9357595,4.3324746 58.0242044,16.507492 C57.8528788,17.5986938 58.5985858,18.6221744 59.6897875,18.7935 C60.7809893,18.9648257 61.80447,18.2191187 61.9757956,17.1279169 Z" id="Eyebrow" transform="translate(73.000097, 9.410436) scale(-1, 1) translate(-73.000097, -9.410436)" blush:i="0.6.0.0.1"/></g></g></g><g id="Facial Hair" transform="translate(57.000000, 72.000000) scale(1 1)" fill="#000" blush:width="168" blush:height="152" blush:component="Facial Hair" blush:i="0.7" blush:value="-Blank" blush:viewBox="294 266 0 0"><g id="Facial Hair/Blank" stroke="none" stroke-width="1" fill="none" fill-rule="evenodd" fill-opacity="0" blush:viewBox="294 266 0 0" blush:i="0.7.0"/></g><g id="Hairstyle" transform="translate(7.000000, 0.000000) scale(1 1)" blush:width="266" blush:height="280" blush:component="Hairstyle" blush:i="0.8" blush:value="Straight Curvy" blush:viewBox="39.89999999999998 14 201.59999999999997 253.40000000000006"><g id="Hairstyle/Straight Curvy" stroke="none" stroke-width="1" fill="none" fill-rule="evenodd" blush:viewBox="39.89999999999998 14 201.59999999999997 253.40000000000006" blush:i="0.8.0"><path d="M90,28 C109.904677,13.2403583 143.442051,8.98170328 155.047127,26.5221924 C163.696621,22.6805652 176.518413,26.1815193 186,35 C195.565732,44.4156112 203.20059,65.1998818 198.656587,82.206592 C198.762179,83.4709859 198.815476,84.7499388 198.815476,86.0408963 L198.81538,107.891574 C197.933901,102.918283 193.989239,99.0033044 189.000809,98.1660527 L189,98 L189,98 C182.96334,76.4623862 165.226514,66.5783743 154.426942,56.7746242 C137.537945,75.673255 84.8230783,75.7388921 67,113 L67,113 L67,123 C67,129.018777 71.4310943,134.002616 77.2090181,134.867253 C78.9518263,155.114813 91.4692242,172.28298 108.999984,180.610943 L109,181 L109,181 C111.930371,224.855112 102.358462,279.797432 40,263 C53.642322,255.016339 60.8468043,203.781043 61.001396,172.286981 L61,84.046252 C61,80.5176475 61.3973049,77.0818385 62.1496203,73.7811194 C65.2010611,53.7368957 76.7729938,37.8125737 90,28 Z M198.81538,125.108426 L198.815476,126.47039 C198.815476,142.298552 202.572711,157.900645 209.7782,171.993609 L236.726668,224.701177 C243.690155,238.320818 241.645331,254.175364 232.789213,265.470883 C229.966979,228.289531 198.903958,199 161,199 L161,199 L157,198.999002 L157.001014,180.610469 C174.531251,172.282329 187.048207,155.114429 188.791415,134.867236 C193.878344,134.105955 197.921578,130.151245 198.81538,125.108426 Z" id="Hair" fill="#2c1b18" blush:color="Hair-500" blush:i="0.8.0.0"/><path d="M154.426942,56.7746242 C165.226514,66.5783743 182.96334,76.4623862 189,98 L188.959163,97.8569124 C182.884245,79.2637728 165.205266,72.6964956 154.429684,64.2083647 C137.535357,80.6069148 84.8226408,80.6646674 67,113 L67,113 C84.6310234,76.140404 136.405924,75.6789885 153.872441,57.3801299 Z" id="Shadow" fill-opacity=".16" fill="#000" blush:i="0.8.0.1"/></g></g><g id="Accesories" transform="translate(70.000000, 85.000000) scale(1 1)" blush:width="142" blush:height="54" blush:component="Accesories" blush:i="0.9" blush:value="Round" blush:viewBox="7.810000000000002 2.8421052631578974 126.38000000000004 50.44736842105264"><g id="Accesories/Round" stroke="none" stroke-width="1" fill="none" fill-rule="evenodd" blush:viewBox="7.810000000000002 2.8421052631578974 126.38000000000004 50.44736842105264" blush:i="0.9.0"><path d="M102,5 C110.919724,5 118.702944,9.86594657 122.839966,17.0881434 C123.049977,17.0306809 123.271405,17 123.5,17 L131.5,17 C132.880712,17 134,18.1192881 134,19.5 C134,20.8807119 132.880712,22 131.5,22 L124.963112,21.9999542 C125.63735,24.2145597 126,26.5649291 126,29 C126,42.254834 115.254834,53 102,53 C88.745166,53 78,42.254834 78,29 C78,27.5817328 78.1230214,26.1921987 78.3589754,24.8414867 C78.2814883,20.460693 74.9167538,17 70.8624171,17 C67.1244063,17 63.9725878,19.9417418 63.4412238,23.8340095 C63.8076631,25.4981856 64,27.2266315 64,29 C64,42.254834 53.254834,53 40,53 C26.745166,53 16,42.254834 16,29 C16,26.5649291 16.3626501,24.2145597 17.0368877,21.9999542 L10.5,22 C9.11928813,22 8,20.8807119 8,19.5 C8,18.1192881 9.11928813,17 10.5,17 L18.5,17 C18.7285947,17 18.9500235,17.0306809 19.1603931,17.0881495 C23.2970555,9.86594657 31.0802764,5 40,5 C49.3522436,5 57.4550935,10.3492902 61.4157763,18.1550973 C63.492635,15.0394413 66.9492812,13 70.8624171,13 C74.874933,13 78.4074783,15.1443461 80.4650049,18.3947271 C84.3793874,10.4592067 92.5521607,5 102,5 Z M40,9 C28.954305,9 20,17.954305 20,29 C20,40.045695 28.954305,49 40,49 C51.045695,49 60,40.045695 60,29 C60,17.954305 51.045695,9 40,9 Z M102,9 C90.954305,9 82,17.954305 82,29 C82,40.045695 90.954305,49 102,49 C113.045695,49 122,40.045695 122,29 C122,17.954305 113.045695,9 102,9 Z" id="Lennon-Glasses" fill-opacity=".16" fill="#000" blush:i="0.9.0.0"/><path d="M102,3 C110.919724,3 118.702944,7.86594657 122.839966,15.0881434 C123.049977,15.0306809 123.271405,15 123.5,15 L131.5,15 C132.880712,15 134,16.1192881 134,17.5 C134,18.8807119 132.880712,20 131.5,20 L124.963112,19.9999542 C125.63735,22.2145597 126,24.5649291 126,27 C126,40.254834 115.254834,51 102,51 C88.745166,51 78,40.254834 78,27 C78,25.5817328 78.1230214,24.1921987 78.3589754,22.8414867 C78.2814883,18.460693 74.9167538,15 70.8624171,15 C67.1244063,15 63.9725878,17.9417418 63.4412238,21.8340095 C63.8076631,23.4981856 64,25.2266315 64,27 C64,40.254834 53.254834,51 40,51 C26.745166,51 16,40.254834 16,27 C16,24.5649291 16.3626501,22.2145597 17.0368877,19.9999542 L10.5,20 C9.11928813,20 8,18.8807119 8,17.5 C8,16.1192881 9.11928813,15 10.5,15 L18.5,15 C18.7285947,15 18.9500235,15.0306809 19.1603931,15.0881495 C23.2970555,7.86594657 31.0802764,3 40,3 C49.3522436,3 57.4550935,8.34929022 61.4157763,16.1550973 C63.492635,13.0394413 66.9492812,11 70.8624171,11 C74.874933,11 78.4074783,13.1443461 80.4650049,16.3947271 C84.3793874,8.45920672 92.5521607,3 102,3 Z M40,7 C28.954305,7 20,15.954305 20,27 C20,38.045695 28.954305,47 40,47 C51.045695,47 60,38.045695 60,27 C60,15.954305 51.045695,7 40,7 Z M102,7 C90.954305,7 82,15.954305 82,27 C82,38.045695 90.954305,47 102,47 C113.045695,47 122,38.045695 122,27 C122,15.954305 113.045695,7 102,7 Z" id="Lennon-Glasses" fill="#252C2F" blush:i="0.9.0.1"/></g></g></g></svg>