<svg viewBox="38.5 14 203.00000000000003 269.5" xmlns="http://www.w3.org/2000/svg" xmlns:xlink="http://www.w3.org/1999/xlink" xmlns:blush="http://design.blush" overflow="visible" width="203.00000000000003px" height="269.5px"><defs><path d="M83,36.3476251 C83,52.6289957 105.161905,65.8276544 132.5,65.8276544 C159.838095,65.8276544 182,52.6289957 182,36.3476251 C182,34.9853134 181.844841,33.6445843 181.544472,32.3313638 C210.784239,41.4879251 232,68.792221 232,101.051724 L232,110 L32,110 L32,101.051724 C32,68.3970853 53.7386736,40.8197864 83.5337207,32.0021267 C83.1821692,33.4207025 83,34.871494 83,36.3476251 Z" id="masteravataaardefault-path-1"/></defs><g id="Master/Avataaar/Default" stroke="none" stroke-width="1" fill="none" fill-rule="evenodd" blush:has-customizable-colors="true" blush:viewBox="39.19999999999999 19.600000000000023 201.60000000000002 260.3999999999999" blush:i="0"><path d="M140,36 C170.927946,36 196,61.072054 196,92 L196.000809,98.1660527 C201.675838,99.1185422 206,104.05429 206,110 L206,124 C206,130.052417 201.519235,135.058294 195.693975,135.881364 C193.627928,155.686472 181.237929,172.421678 164.001014,180.610469 L164,199 L168,199 C207.764502,199 240,231.235498 240,271 L240,280 L40,280 L40,271 C40,231.235498 72.235498,199 112,199 L116,199 L115.999984,180.610943 C98.7625487,172.422324 86.3721119,155.686854 84.3051107,135.88097 C78.480765,135.058294 74,130.052417 74,124 L74,110 C74,104.053942 78.3246685,99.1179645 84.0001873,98.1658855 L84,92 C84,61.072054 109.072054,36 140,36 Z" id="Body" fill="#eac7a8" blush:color="Skin-500" blush:i="0.0"/><path d="M115.998216,180.610103 C123.272713,184.066155 131.410519,186 140,186 C148.588785,186 156.725969,184.066469 164.000016,180.610943 L164.000353,185.94579 C157.441661,190.398372 149.524652,193 141,193 C131.589035,193 122.918635,189.829263 115.998807,184.497795 Z" id="shadow" fill-opacity=".24" fill="#000" blush:i="0.1"/><g id="Nose" transform="translate(112.000000, 122.000000) scale(1 1)" fill="#000" blush:width="56" blush:height="24" blush:component="Nose" blush:i="0.2" blush:value="Small" blush:viewBox="19.880000000000003 6.953271028037381 16.240000000000016 8.130841121495324"><g id="Nose/Small" stroke="none" stroke-width="1" fill="none" fill-rule="evenodd" blush:viewBox="19.880000000000003 6.953271028037381 16.240000000000016 8.130841121495324" blush:i="0.2.0"><path d="M20,7 C20,12.5228475 24.0470996,15 28,15 C31.9529004,15 36,12.5228475 36,7 C33.8327451,7.7317728 31.1406373,8.0976592 27.9236765,8.0976592 C24.7406373,8.0976592 22.0994118,7.7317728 20,7 Z" id="Nose" fill-opacity=".16" fill="#000" blush:i="0.2.0.0"/></g></g><g id="Clothing" transform="translate(8.000000, 170.000000) scale(1 1)" blush:width="264" blush:height="110" blush:component="Clothing" blush:i="0.3" blush:value="Overall" blush:viewBox="67.32 28.557692307692307 129.35999999999996 81.97115384615383"><defs blush:i="0.3.0"><path d="M196.000348,38.6320038 L196,110 L68,110 L67.999672,38.6319925 C75.8495147,34.0910485 84.6362412,30.9895697 93.9989132,29.6884945 L93.999,73.9993435 L170,73.9993435 L170.001087,29.6884945 C179.363767,30.9895707 188.1505,34.0910536 196.000348,38.6320038 Z" id="clothingoverall-path-1" blush:i="0.3.0.0"/></defs><g id="Clothing/Overall" stroke="none" stroke-width="1" fill="none" fill-rule="evenodd" blush:viewBox="67.32 28.557692307692307 129.35999999999996 81.97115384615383" blush:i="0.3.1"><mask id="clothingoverall-mask-2" fill="#fff" blush:i="0.3.1.0"><use xlink:href="#clothingoverall-path-1" blush:i="0.3.1.0.0"/></mask><use id="Overall" fill="#b2bec3" xlink:href="#clothingoverall-path-1" blush:color="Top-500" blush:i="0.3.1.1"/><circle id="Button" fill="#F4F4F4" cx="81" cy="83" r="5" blush:i="0.3.1.2"/><circle id="Button" fill="#F4F4F4" cx="183" cy="83" r="5" blush:i="0.3.1.3"/></g></g><g id="Mouth" transform="translate(86.000000, 134.000000) scale(1 1)" fill="#000" blush:width="108" blush:height="44" blush:component="Mouth" blush:i="0.4" blush:value="Default" blush:viewBox="39.96000000000001 14.990196078431374 28.080000000000027 14.019607843137255"><g id="Mouth/Default" stroke="none" stroke-width="1" fill="none" fill-rule="evenodd" blush:viewBox="39.96000000000001 14.990196078431374 28.080000000000027 14.019607843137255" blush:i="0.4.0"><path d="M40,15 C40,22.7319865 46.2680135,29 54,29 L54,29 C61.7319865,29 68,22.7319865 68,15" id="Mouth" fill-opacity=".7" fill="#000" blush:i="0.4.0.0"/></g></g><g id="Eyes" transform="translate(84.000000, 90.000000) scale(1 1)" fill="#000" blush:width="112" blush:height="44" blush:component="Eyes" blush:i="0.5" blush:value="Side" blush:viewBox="15.679999999999993 15.826530612244895 80.64000000000001 14.591836734693882"><g id="Eyes/Side" stroke="none" stroke-width="1" fill="none" fill-rule="evenodd" blush:viewBox="15.679999999999993 15.826530612244895 80.64000000000001 14.591836734693882" blush:i="0.5.0"><path d="M26.9975803,16 C30.5023373,16 33.8908881,17.3142215 36.0178027,19.5426914 C36.76432,20.2169977 37.3413788,21.076429 37.6755948,22.0487876 C37.7255661,22.1661456 37.7719796,22.285947 37.8153518,22.4071242 C37.9093375,22.6697105 37.9470658,22.9204105 37.9396792,23.1420431 C37.9792021,23.4217112 38,23.7084268 38,24 C38,27.3137085 35.3137085,30 32,30 C28.6862915,30 26,27.3137085 26,24 C26,22.6248836 26.4625977,21.3578126 27.2406617,20.3459186 C27.1600773,20.3443723 27.0789132,20.3437884 26.9975803,20.3437884 C23.2572061,20.3437884 19.8737584,21.5787519 17.4375392,23.5716412 C16.5467928,24.3002944 15.6201012,23.5583844 16.1601674,22.4473116 C18.006676,18.648508 22.1644225,16 26.9975803,16 Z" id="Eye" fill-opacity=".6" fill="#000" blush:i="0.5.0.0"/><path d="M84.9975803,16 C88.5023373,16 91.8908881,17.3142215 94.0178027,19.5426914 C94.76432,20.2169977 95.3413788,21.076429 95.6755948,22.0487876 C95.7255661,22.1661456 95.7719796,22.285947 95.8153518,22.4071242 C95.9093375,22.6697105 95.9470658,22.9204105 95.9396792,23.1420431 C95.9792021,23.4217112 96,23.7084268 96,24 C96,27.3137085 93.3137085,30 90,30 C86.6862915,30 84,27.3137085 84,24 C84,22.6248836 84.4625977,21.3578126 85.2406617,20.3459186 C85.1600773,20.3443723 85.0789132,20.3437884 84.9975803,20.3437884 C81.2572061,20.3437884 77.8737584,21.5787519 75.4375392,23.5716412 C74.5467928,24.3002944 73.6201012,23.5583844 74.1601674,22.4473116 C76.006676,18.648508 80.1644225,16 84.9975803,16 Z" id="Eye" fill-opacity=".6" fill="#000" blush:i="0.5.0.1"/></g></g><g id="Eyebrow/Outline" transform="translate(84.000000, 82.000000) scale(1 1)" fill="#000" blush:width="112" blush:height="24" blush:component="Eyebrow/Outline" blush:i="0.6" blush:value="Raised Excited" blush:viewBox="11.760000000000005 -0.05607476635514175 88.48000000000002 19.065420560747665"><g id="Eyebrow/Outline/Raised Excited" stroke="none" stroke-width="1" fill="none" fill-rule="evenodd" blush:viewBox="11.760000000000005 -0.05607476635514175 88.48000000000002 19.065420560747665" blush:i="0.6.0"><g id="I-Browse" transform="translate(12.000000, 0.000000)" fill="#000" fill-opacity=".6" fill-rule="nonzero" blush:i="0.6.0.0"><path d="M3.97579559,17.1279169 C5.47099148,7.60476158 18.0585488,1.10867597 27.1635167,5.30104271 C28.1668367,5.76301969 29.3546946,5.32417444 29.8166716,4.32085442 C30.2786486,3.3175344 29.8398033,2.12967649 28.8364833,1.66769952 C17.3488212,-3.62177466 1.93575948,4.3324746 0.0242044059,16.507492 C-0.147121205,17.5986938 0.598585765,18.6221744 1.68978754,18.7935 C2.78098932,18.9648257 3.80446998,18.2191187 3.97579559,17.1279169 Z" id="Eyebrow" blush:i="0.6.0.0.0"/><path d="M61.9757956,17.1279169 C63.4709915,7.60476158 76.0585488,1.10867597 85.1635167,5.30104271 C86.1668367,5.76301969 87.3546946,5.32417444 87.8166716,4.32085442 C88.2786486,3.3175344 87.8398033,2.12967649 86.8364833,1.66769952 C75.3488212,-3.62177466 59.9357595,4.3324746 58.0242044,16.507492 C57.8528788,17.5986938 58.5985858,18.6221744 59.6897875,18.7935 C60.7809893,18.9648257 61.80447,18.2191187 61.9757956,17.1279169 Z" id="Eyebrow" transform="translate(73.000097, 9.410436) scale(-1, 1) translate(-73.000097, -9.410436)" blush:i="0.6.0.0.1"/></g></g></g><g id="Facial Hair" transform="translate(57.000000, 72.000000) scale(1 1)" fill="#000" blush:width="168" blush:height="152" blush:component="Facial Hair" blush:i="0.7" blush:value="-Blank" blush:viewBox="294 266 0 0"><g id="Facial Hair/Blank" stroke="none" stroke-width="1" fill="none" fill-rule="evenodd" fill-opacity="0" blush:viewBox="294 266 0 0" blush:i="0.7.0"/></g><g id="Hairstyle" transform="translate(7.000000, 0.000000) scale(1 1)" blush:width="266" blush:height="280" blush:component="Hairstyle" blush:i="0.8" blush:value="Straight" blush:viewBox="58.10000000000002 16.80000000000001 149.79999999999998 258.99999999999994"><g id="Hairstyle/Straight" stroke="none" stroke-width="1" fill="none" fill-rule="evenodd" blush:viewBox="58.10000000000002 16.80000000000001 149.79999999999998 258.99999999999994" blush:i="0.8.0"><path d="M207,215.608051 C194.525121,205.236892 178.490913,199 161,199 L161,199 L157,199 L157,180.610951 C174.530782,172.282984 187.048193,155.114792 188.791419,134.867187 C194.569129,134.002364 199,129.018625 199,123 L199,123 L199,110 C199,105.353621 196.359271,101.324018 192.496777,99.3301515 C191.723933,99.0500337 190.951808,98.748163 190.180891,98.4262497 C189.794819,98.3202581 189.400778,98.2331546 189,98.1659169 L189,98.1659169 L189.000458,97.9172528 C176.224481,92.2339715 163.877985,81.0706967 155.110431,65.8848473 C152.175256,60.8009742 149.831069,55.5951441 148.066143,50.3970356 C139.431395,60.9409152 126.744547,71.6023901 111.341516,80.4953343 C101.777598,86.0170651 92.1467898,90.2910056 83,93.2659587 L83.0003852,155.246608 C88.6019576,166.318362 97.7728825,175.277529 109,180.610951 L109,180.610951 L109,199 L105,199 C97.3273639,199 89.9350359,200.200142 83.0004995,202.422941 L83,248 C83,262.105888 72.5691766,273.775526 59,275.716445 L59,92 C59,51.1309285 92.1309285,18 133,18 C173.869071,18 207,51.1309285 207,92 Z" id="Mask-Hair" fill="#2c1b18" blush:color="Hair-500" blush:i="0.8.0.0"/><path d="M207,215.608051 C194.525121,205.236892 178.490913,199 161,199 L161,199 L157,199 L157,180.610951 C174.530782,172.282984 187.048193,155.114792 188.791419,134.867187 C194.569129,134.002364 199,129.018625 199,123 L199,123 L199,110 C199,105.353621 196.359271,101.324018 192.496777,99.3301515 C197.367935,101.106406 202.259898,102.071905 207,102.148232 L207,102.148232 Z M82.999376,155.244613 C88.6008561,166.317285 97.7722083,175.277209 109,180.610951 L109,180.610951 L109,199 L105,199 C97.3269953,199 89.9343257,200.200257 82.9995003,202.423262 Z M188.999466,97.9168114 C189.392897,98.0918351 189.786736,98.261662 190.180891,98.4262497 C189.794819,98.3202581 189.400778,98.2331546 189,98.1659169 L189,98.1659169 Z" id="Shadow" fill-opacity=".24" fill="#000" blush:i="0.8.0.1"/></g></g><g id="Accesories" transform="translate(70.000000, 85.000000) scale(1 1)" blush:width="142" blush:height="54" blush:component="Accesories" blush:i="0.9" blush:value="Blank" blush:viewBox="248.5 94.5 0 0"><g id="Accesories/Blank" stroke="none" stroke-width="1" fill="none" fill-rule="evenodd" fill-opacity="0" blush:viewBox="248.5 94.5 0 0" blush:i="0.9.0"/></g></g></svg>