<svg viewBox="38.5 14 203.00000000000003 269.5" xmlns="http://www.w3.org/2000/svg" xmlns:xlink="http://www.w3.org/1999/xlink" xmlns:blush="http://design.blush" overflow="visible" width="203.00000000000003px" height="269.5px"><defs><path d="M83,36.3476251 C83,52.6289957 105.161905,65.8276544 132.5,65.8276544 C159.838095,65.8276544 182,52.6289957 182,36.3476251 C182,34.9853134 181.844841,33.6445843 181.544472,32.3313638 C210.784239,41.4879251 232,68.792221 232,101.051724 L232,110 L32,110 L32,101.051724 C32,68.3970853 53.7386736,40.8197864 83.5337207,32.0021267 C83.1821692,33.4207025 83,34.871494 83,36.3476251 Z" id="masteravataaardefault-path-1"/></defs><g id="Master/Avataaar/Default" stroke="none" stroke-width="1" fill="none" fill-rule="evenodd" blush:has-customizable-colors="true" blush:viewBox="39.19999999999999 19.600000000000023 201.60000000000002 260.3999999999999" blush:i="0"><path d="M140,36 C170.927946,36 196,61.072054 196,92 L196.000809,98.1660527 C201.675838,99.1185422 206,104.05429 206,110 L206,124 C206,130.052417 201.519235,135.058294 195.693975,135.881364 C193.627928,155.686472 181.237929,172.421678 164.001014,180.610469 L164,199 L168,199 C207.764502,199 240,231.235498 240,271 L240,280 L40,280 L40,271 C40,231.235498 72.235498,199 112,199 L116,199 L115.999984,180.610943 C98.7625487,172.422324 86.3721119,155.686854 84.3051107,135.88097 C78.480765,135.058294 74,130.052417 74,124 L74,110 C74,104.053942 78.3246685,99.1179645 84.0001873,98.1658855 L84,92 C84,61.072054 109.072054,36 140,36 Z" id="Body" fill="#eac7a8" blush:color="Skin-500" blush:i="0.0"/><path d="M115.998216,180.610103 C123.272713,184.066155 131.410519,186 140,186 C148.588785,186 156.725969,184.066469 164.000016,180.610943 L164.000353,185.94579 C157.441661,190.398372 149.524652,193 141,193 C131.589035,193 122.918635,189.829263 115.998807,184.497795 Z" id="shadow" fill-opacity=".24" fill="#000" blush:i="0.1"/><g id="Nose" transform="translate(112.000000, 122.000000) scale(1 1)" fill="#000" blush:width="56" blush:height="24" blush:component="Nose" blush:i="0.2" blush:value="Small" blush:viewBox="19.880000000000003 6.953271028037381 16.240000000000016 8.130841121495324"><g id="Nose/Small" stroke="none" stroke-width="1" fill="none" fill-rule="evenodd" blush:viewBox="19.880000000000003 6.953271028037381 16.240000000000016 8.130841121495324" blush:i="0.2.0"><path d="M20,7 C20,12.5228475 24.0470996,15 28,15 C31.9529004,15 36,12.5228475 36,7 C33.8327451,7.7317728 31.1406373,8.0976592 27.9236765,8.0976592 C24.7406373,8.0976592 22.0994118,7.7317728 20,7 Z" id="Nose" fill-opacity=".16" fill="#000" blush:i="0.2.0.0"/></g></g><g id="Clothing" transform="translate(8.000000, 170.000000) scale(1 1)" blush:width="264" blush:height="110" blush:component="Clothing" blush:i="0.3" blush:value="Shirt V Neck" blush:viewBox="31.67999999999998 29.879807692307693 200.64000000000004 80.64903846153845"><defs blush:i="0.3.0"><path d="M232,101.051724 L232,110 L32,110 L32,101.051724 C32,65.1384292 58.2938256,35.3663869 92.6806879,29.9363855 C93.5844961,35.0070695 96.1171239,39.8245023 100.236125,43.5389794 L100.236125,43.5389794 L129.321203,69.7676333 C130.843316,71.1402598 133.156684,71.1402598 134.678797,69.7676333 L134.678797,69.7676333 L163.763875,43.5389794 C164.189462,43.1551884 164.601167,42.7562772 164.998197,42.3430127 C168.413626,38.7879269 170.516642,34.4534098 171.319249,29.9385703 C205.706684,35.3669637 232,65.1387771 232,101.051724 Z" id="clothingshirt-v-neck-path-1" blush:i="0.3.0.0"/></defs><g id="Clothing/Shirt V Neck" stroke="none" stroke-width="1" fill="none" fill-rule="evenodd" blush:viewBox="31.67999999999998 29.879807692307693 200.64000000000004 80.64903846153845" blush:i="0.3.1"><mask id="clothingshirt-v-neck-mask-2" fill="#fff" blush:i="0.3.1.0"><use xlink:href="#clothingshirt-v-neck-path-1" blush:i="0.3.1.0.0"/></mask><use id="Clothes" fill="#b2bec3" xlink:href="#clothingshirt-v-neck-path-1" blush:color="Top-500" blush:i="0.3.1.1"/></g></g><g id="Mouth" transform="translate(86.000000, 134.000000) scale(1 1)" fill="#000" blush:width="108" blush:height="44" blush:component="Mouth" blush:i="0.4" blush:value="Default" blush:viewBox="39.96000000000001 14.990196078431374 28.080000000000027 14.019607843137255"><g id="Mouth/Default" stroke="none" stroke-width="1" fill="none" fill-rule="evenodd" blush:viewBox="39.96000000000001 14.990196078431374 28.080000000000027 14.019607843137255" blush:i="0.4.0"><path d="M40,15 C40,22.7319865 46.2680135,29 54,29 L54,29 C61.7319865,29 68,22.7319865 68,15" id="Mouth" fill-opacity=".7" fill="#000" blush:i="0.4.0.0"/></g></g><g id="Eyes" transform="translate(84.000000, 90.000000) scale(1 1)" fill="#000" blush:width="112" blush:height="44" blush:component="Eyes" blush:i="0.5" blush:value="Side" blush:viewBox="15.679999999999993 15.826530612244895 80.64000000000001 14.591836734693882"><g id="Eyes/Side" stroke="none" stroke-width="1" fill="none" fill-rule="evenodd" blush:viewBox="15.679999999999993 15.826530612244895 80.64000000000001 14.591836734693882" blush:i="0.5.0"><path d="M26.9975803,16 C30.5023373,16 33.8908881,17.3142215 36.0178027,19.5426914 C36.76432,20.2169977 37.3413788,21.076429 37.6755948,22.0487876 C37.7255661,22.1661456 37.7719796,22.285947 37.8153518,22.4071242 C37.9093375,22.6697105 37.9470658,22.9204105 37.9396792,23.1420431 C37.9792021,23.4217112 38,23.7084268 38,24 C38,27.3137085 35.3137085,30 32,30 C28.6862915,30 26,27.3137085 26,24 C26,22.6248836 26.4625977,21.3578126 27.2406617,20.3459186 C27.1600773,20.3443723 27.0789132,20.3437884 26.9975803,20.3437884 C23.2572061,20.3437884 19.8737584,21.5787519 17.4375392,23.5716412 C16.5467928,24.3002944 15.6201012,23.5583844 16.1601674,22.4473116 C18.006676,18.648508 22.1644225,16 26.9975803,16 Z" id="Eye" fill-opacity=".6" fill="#000" blush:i="0.5.0.0"/><path d="M84.9975803,16 C88.5023373,16 91.8908881,17.3142215 94.0178027,19.5426914 C94.76432,20.2169977 95.3413788,21.076429 95.6755948,22.0487876 C95.7255661,22.1661456 95.7719796,22.285947 95.8153518,22.4071242 C95.9093375,22.6697105 95.9470658,22.9204105 95.9396792,23.1420431 C95.9792021,23.4217112 96,23.7084268 96,24 C96,27.3137085 93.3137085,30 90,30 C86.6862915,30 84,27.3137085 84,24 C84,22.6248836 84.4625977,21.3578126 85.2406617,20.3459186 C85.1600773,20.3443723 85.0789132,20.3437884 84.9975803,20.3437884 C81.2572061,20.3437884 77.8737584,21.5787519 75.4375392,23.5716412 C74.5467928,24.3002944 73.6201012,23.5583844 74.1601674,22.4473116 C76.006676,18.648508 80.1644225,16 84.9975803,16 Z" id="Eye" fill-opacity=".6" fill="#000" blush:i="0.5.0.1"/></g></g><g id="Eyebrow/Outline" transform="translate(84.000000, 82.000000) scale(1 1)" fill="#000" blush:width="112" blush:height="24" blush:component="Eyebrow/Outline" blush:i="0.6" blush:value="Raised Excited" blush:viewBox="11.760000000000005 -0.05607476635514175 88.48000000000002 19.065420560747665"><g id="Eyebrow/Outline/Raised Excited" stroke="none" stroke-width="1" fill="none" fill-rule="evenodd" blush:viewBox="11.760000000000005 -0.05607476635514175 88.48000000000002 19.065420560747665" blush:i="0.6.0"><g id="I-Browse" transform="translate(12.000000, 0.000000)" fill="#000" fill-opacity=".6" fill-rule="nonzero" blush:i="0.6.0.0"><path d="M3.97579559,17.1279169 C5.47099148,7.60476158 18.0585488,1.10867597 27.1635167,5.30104271 C28.1668367,5.76301969 29.3546946,5.32417444 29.8166716,4.32085442 C30.2786486,3.3175344 29.8398033,2.12967649 28.8364833,1.66769952 C17.3488212,-3.62177466 1.93575948,4.3324746 0.0242044059,16.507492 C-0.147121205,17.5986938 0.598585765,18.6221744 1.68978754,18.7935 C2.78098932,18.9648257 3.80446998,18.2191187 3.97579559,17.1279169 Z" id="Eyebrow" blush:i="0.6.0.0.0"/><path d="M61.9757956,17.1279169 C63.4709915,7.60476158 76.0585488,1.10867597 85.1635167,5.30104271 C86.1668367,5.76301969 87.3546946,5.32417444 87.8166716,4.32085442 C88.2786486,3.3175344 87.8398033,2.12967649 86.8364833,1.66769952 C75.3488212,-3.62177466 59.9357595,4.3324746 58.0242044,16.507492 C57.8528788,17.5986938 58.5985858,18.6221744 59.6897875,18.7935 C60.7809893,18.9648257 61.80447,18.2191187 61.9757956,17.1279169 Z" id="Eyebrow" transform="translate(73.000097, 9.410436) scale(-1, 1) translate(-73.000097, -9.410436)" blush:i="0.6.0.0.1"/></g></g></g><g id="Facial Hair" transform="translate(57.000000, 72.000000) scale(1 1)" fill="#000" blush:width="168" blush:height="152" blush:component="Facial Hair" blush:i="0.7" blush:value="-Blank" blush:viewBox="294 266 0 0"><g id="Facial Hair/Blank" stroke="none" stroke-width="1" fill="none" fill-rule="evenodd" fill-opacity="0" blush:viewBox="294 266 0 0" blush:i="0.7.0"/></g><g id="Hairstyle" transform="translate(7.000000, 0.000000) scale(1 1)" blush:width="266" blush:height="280" blush:component="Hairstyle" blush:i="0.8" blush:value="Straight + Strand" blush:viewBox="58.10000000000002 16.80000000000001 149.79999999999998 196.00000000000003"><g id="Hairstyle/Straight + Strand" stroke="none" stroke-width="1" fill="none" fill-rule="evenodd" blush:viewBox="58.10000000000002 16.80000000000001 149.79999999999998 196.00000000000003" blush:i="0.8.0"><path d="M207,188 C207,196.558333 205.547144,204.777334 202.874615,212.42382 C191.07592,203.97319 176.618736,199 161,199 L161,199 L157,199 L157.001014,180.610469 C174.531251,172.282329 187.048207,155.114429 188.791415,134.867236 C194.568906,134.002616 199,129.018777 199,123 L199,123 L199,110 C199,108.310318 198.650776,106.702201 198.020567,105.243891 C185.063853,103.056558 170.478255,97.7683737 156.14893,89.4953343 C144.017178,82.4910638 133.646468,74.2579416 125.669508,65.752196 C129.096339,73.6604321 133.245933,80.5880409 138.118291,86.5350224 C125.443111,81.0120855 116.812635,72.1324394 112.226862,59.8960843 C111.849027,60.8180234 111.455505,61.738913 111.046195,62.6582378 C101.207093,84.757223 84.5916248,100.681524 67.462066,106.693268 C67.1609391,107.743483 67,108.852947 67,110 L67,110 L67,123 C67,129.018777 71.4310943,134.002616 77.2090181,134.867253 C78.9518263,155.114813 91.4692242,172.28298 108.999984,180.610943 L109,199 L105,199 C89.3812644,199 74.9240795,203.97319 63.1255843,212.42243 C60.4528556,204.777334 59,196.558333 59,188 L59,92 C59,51.1309285 92.1309285,18 133,18 L134.223725,18.0099139 C174.528377,18.6633924 207,51.5396192 207,92 L207,92 L207,188 Z" id="Hair" fill="#2c1b18" blush:color="Hair-500" blush:i="0.8.0.0"/><path d="M111.046195,62.6582378 C111.455505,61.738913 111.849027,60.8180234 112.226862,59.8960843 C116.23201,70.5831416 123.322468,78.7096926 133.498237,84.2757375 C134.957704,86.4713573 136.498035,88.5574103 138.118291,90.5350224 C125.443111,85.0120855 116.812635,76.1324394 112.226862,63.8960843 C111.849027,64.8180234 111.455505,65.738913 111.046195,66.6582378 C99.5895621,92.3902571 78.9453743,109.750496 59,112.837908 L59,112.837908 L59,108.837908 C78.9453743,105.750496 99.5895621,88.3902571 111.046195,62.6582378 Z M207,110.280776 C192.046922,109.412723 173.901259,103.744646 156.14893,93.4953343 C145.874756,87.5635371 136.86362,80.7503942 129.499826,73.6367126 C128.136723,71.1264817 126.859535,68.498468 125.669508,65.752196 C133.646468,74.2579416 144.017178,82.4910638 156.14893,89.4953343 C173.901259,99.7446457 192.046922,105.412723 207,106.280776 Z" id="Shadow" fill-opacity=".16" fill="#000" blush:i="0.8.0.1"/></g></g><g id="Accesories" transform="translate(70.000000, 85.000000) scale(1 1)" blush:width="142" blush:height="54" blush:component="Accesories" blush:i="0.9" blush:value="Blank" blush:viewBox="248.5 94.5 0 0"><g id="Accesories/Blank" stroke="none" stroke-width="1" fill="none" fill-rule="evenodd" fill-opacity="0" blush:viewBox="248.5 94.5 0 0" blush:i="0.9.0"/></g></g></svg>