<?xml version="1.0" encoding="utf-8"?>
<!-- Generator: Adobe Illustrator 22.1.0, SVG Export Plug-In . SVG Version: 6.00 Build 0)  -->
<svg version="1.1" id="Layer_1" xmlns="http://www.w3.org/2000/svg" xmlns:xlink="http://www.w3.org/1999/xlink" x="0px" y="0px"
	 viewBox="0 0 85 27" style="enable-background:new 0 0 85 27;" xml:space="preserve">
<style type="text/css">
	.st0{fill:#2D3436;}
	.st1{fill:#3A6351;}
</style>
<g>
	<path class="st0" d="M69.7,2.4l-0.5,0.3c-2.8,1.5-2.6,3.2-1.9,4.5h3.2c6.4,0,11.6,2.3,11.6,5.2v5.5c0,2.9-5.2,5.2-11.6,5.2H13.7
		c-6.4,0-11.6-2.3-11.6-5.2v-5.5c0-2.9,5.2-5.2,11.6-5.2h40.7c1.2-1.4,4-2.7,8.3-3.6c3.3-0.7,6.2-1,6.3-1L69.7,2.4z M70.4,22.8
		c6.1,0,11.1-2.2,11.1-4.9v-5.5c0-2.7-5-4.9-11.1-4.9h-3.6l-0.1-0.1c-0.7-1.2-1-2.9,1.5-4.5c-1.1,0.1-3.2,0.4-5.4,0.9
		c-2.9,0.7-6.7,1.8-8,3.6l-0.1,0.1H13.7c-6.1,0-11.1,2.2-11.1,4.9v5.5c0,2.7,5,4.9,11.1,4.9H70.4z"/>
</g>
<g>
	<path class="st1" d="M10.1,14.5c0,0.2,0.1,0.3,0.2,0.4c0.1,0.1,0.2,0.1,0.4,0.1s0.3,0,0.4-0.1c0.1-0.1,0.2-0.1,0.3-0.1
		c0.1,0,0.3,0.1,0.5,0.3c0.1,0.1,0.1,0.2,0.1,0.3c0,0.2-0.1,0.3-0.4,0.5c-0.2,0.2-0.5,0.3-0.9,0.3c-0.4,0-0.8-0.1-1.1-0.4
		c-0.2-0.1-0.3-0.3-0.4-0.5C9,15,8.9,14.8,8.9,14.5c0-0.3,0.1-0.5,0.2-0.7c0.1-0.2,0.3-0.4,0.4-0.5c0.4-0.3,0.7-0.4,1.1-0.4
		c0.2,0,0.3,0,0.5,0.1c0.2,0,0.3,0.1,0.3,0.1l0.1,0.1c0.1,0.1,0.1,0.1,0.2,0.1c0.1,0.1,0.2,0.2,0.2,0.3s0,0.2-0.1,0.4
		c-0.2,0.2-0.3,0.4-0.4,0.4c-0.1,0-0.2,0-0.3-0.1C10.9,14,10.8,14,10.6,14s-0.3,0.1-0.4,0.2C10.1,14.2,10.1,14.4,10.1,14.5z"/>
	<path class="st1" d="M12.3,11.8c0-0.1,0-0.2,0-0.2s0-0.1,0.1-0.2c0.1-0.1,0.2-0.2,0.5-0.2c0.3,0,0.4,0.1,0.5,0.2
		c0,0.1,0.1,0.1,0.1,0.2c0,0.1,0,0.1,0,0.2v3c0,0.2,0,0.2,0,0.3c0,0,0.1,0.1,0.2,0.1c0.1,0,0.1,0,0.2,0s0.1,0,0.1,0.1
		c0.1,0.1,0.1,0.2,0.1,0.5c0,0.3,0,0.4-0.1,0.5c-0.1,0.1-0.4,0.1-0.8,0c-0.3,0-0.5-0.2-0.6-0.3c-0.1-0.2-0.2-0.5-0.2-1V11.8z"/>
	<path class="st1" d="M15.4,12.2c0,0.1-0.1,0.1-0.2,0.1c-0.1,0-0.2,0-0.3,0c-0.1,0-0.2,0-0.3,0c-0.1,0-0.1-0.1-0.2-0.1
		c0-0.1-0.1-0.1-0.1-0.2s0-0.1,0-0.2c0-0.1,0-0.2,0-0.2s0-0.1,0.1-0.2c0.1-0.1,0.2-0.2,0.5-0.2c0.3,0,0.4,0.1,0.5,0.2
		c0,0.1,0.1,0.1,0.1,0.2s0,0.1,0,0.2c0,0.1,0,0.2,0,0.2S15.5,12.2,15.4,12.2z M14.4,13.4c0-0.1,0-0.2,0-0.2c0,0,0-0.1,0.1-0.2
		c0.1-0.1,0.2-0.2,0.5-0.2c0.2,0,0.3,0,0.4,0.1c0.1,0.1,0.1,0.2,0.1,0.3c0,0,0,0.1,0,0.2v2.2c0,0.1,0,0.2,0,0.2s0,0.1-0.1,0.2
		c-0.1,0.1-0.2,0.2-0.5,0.2c-0.3,0-0.4-0.1-0.5-0.2c0-0.1,0-0.1-0.1-0.2s0-0.1,0-0.2V13.4z"/>
	<path class="st1" d="M17.1,14.5c0,0.2,0.1,0.3,0.2,0.4c0.1,0.1,0.2,0.1,0.4,0.1s0.3,0,0.4-0.1c0.1-0.1,0.2-0.1,0.3-0.1
		c0.1,0,0.3,0.1,0.5,0.3c0.1,0.1,0.1,0.2,0.1,0.3c0,0.2-0.1,0.3-0.4,0.5c-0.2,0.2-0.5,0.3-0.9,0.3c-0.4,0-0.8-0.1-1.1-0.4
		c-0.2-0.1-0.3-0.3-0.4-0.5c-0.1-0.2-0.2-0.5-0.2-0.8c0-0.3,0.1-0.5,0.2-0.7c0.1-0.2,0.3-0.4,0.4-0.5c0.4-0.3,0.7-0.4,1.1-0.4
		c0.2,0,0.3,0,0.5,0.1c0.2,0,0.3,0.1,0.3,0.1l0.1,0.1c0.1,0.1,0.1,0.1,0.2,0.1c0.1,0.1,0.2,0.2,0.2,0.3s0,0.2-0.1,0.4
		c-0.2,0.2-0.3,0.4-0.4,0.4c-0.1,0-0.2,0-0.3-0.1C17.9,14,17.8,14,17.7,14s-0.3,0.1-0.4,0.2C17.1,14.2,17.1,14.4,17.1,14.5z"/>
	<path class="st1" d="M21.3,14.5l0.8,0.7c0.1,0.1,0.2,0.2,0.2,0.2c0,0,0,0.1,0,0.1c0,0.1-0.1,0.2-0.2,0.4c-0.1,0.2-0.3,0.3-0.4,0.3
		c-0.1,0-0.2-0.1-0.4-0.2l-0.1,0c-0.1-0.1-0.2-0.2-0.5-0.4c-0.2-0.2-0.4-0.3-0.5-0.4v0.5c0,0.1,0,0.2,0,0.2s0,0.1-0.1,0.2
		c-0.1,0.1-0.2,0.2-0.5,0.2c-0.3,0-0.4-0.1-0.5-0.2c0-0.1,0-0.1-0.1-0.2s0-0.1,0-0.2v-3.8c0-0.1,0-0.2,0-0.2s0-0.1,0.1-0.2
		c0.1-0.1,0.2-0.2,0.5-0.2c0.2,0,0.3,0,0.4,0.1c0.1,0.1,0.1,0.2,0.1,0.3c0,0,0,0.1,0,0.2v2c0.1-0.1,0.2-0.2,0.3-0.3
		c0.2-0.2,0.3-0.3,0.3-0.3l0.1-0.1c0.1-0.1,0.3-0.2,0.4-0.2s0.2,0.1,0.4,0.3s0.2,0.3,0.2,0.4c0,0.1-0.1,0.2-0.2,0.3L21.3,14.5z"/>
	<path class="st1" d="M26.3,14l-0.4,0v0.9c0,0.1,0,0.2,0.1,0.2c0,0.1,0.1,0.1,0.2,0.1c0.1,0,0.2,0,0.2,0s0.1,0,0.2,0.1
		c0.1,0.1,0.1,0.2,0.1,0.4c0,0.3-0.1,0.4-0.2,0.5c-0.1,0-0.1,0-0.2,0.1s-0.1,0-0.2,0c-0.4,0-0.8-0.1-1-0.3c-0.2-0.2-0.3-0.5-0.3-1
		V14c-0.1,0-0.2,0-0.3,0c-0.1,0-0.2,0-0.2-0.1c-0.1-0.1-0.1-0.2-0.1-0.4s0-0.3,0-0.4c0-0.1,0.1-0.1,0.1-0.2c0.1-0.1,0.2-0.1,0.3-0.1
		l0.2,0v-0.7c0-0.1,0-0.2,0-0.2c0,0,0-0.1,0.1-0.2c0.1-0.1,0.2-0.2,0.5-0.2c0.3,0,0.5,0.1,0.5,0.2c0,0.1,0,0.2,0,0.3v0.6
		c0.2,0,0.3,0,0.4,0s0.2,0,0.2,0c0,0,0.1,0,0.2,0.1c0.1,0.1,0.2,0.2,0.2,0.5c0,0.3-0.1,0.4-0.2,0.5c-0.1,0-0.1,0-0.2,0.1
		C26.5,14,26.4,14,26.3,14z"/>
	<path class="st1" d="M27.6,13.3c0.4-0.3,0.8-0.5,1.2-0.5c0.5,0,0.9,0.2,1.2,0.5s0.5,0.7,0.5,1.3c0,0.4-0.1,0.7-0.3,0.9
		c-0.2,0.3-0.4,0.5-0.7,0.6c-0.3,0.1-0.5,0.2-0.8,0.2s-0.6-0.1-0.8-0.2s-0.5-0.3-0.7-0.6s-0.3-0.6-0.3-0.9
		C27.1,14,27.3,13.6,27.6,13.3z M28.4,15c0.1,0.1,0.3,0.2,0.4,0.2s0.3-0.1,0.4-0.2c0.1-0.1,0.2-0.3,0.2-0.5c0-0.2-0.1-0.4-0.2-0.5
		c-0.1-0.1-0.3-0.2-0.4-0.2c-0.2,0-0.3,0.1-0.4,0.2c-0.1,0.1-0.2,0.3-0.2,0.5C28.2,14.7,28.3,14.9,28.4,15z"/>
	<path class="st1" d="M32.7,11.8c0-0.1,0-0.2,0-0.2s0-0.1,0.1-0.2c0.1-0.1,0.2-0.2,0.5-0.2c0.3,0,0.4,0.1,0.5,0.2
		c0,0.1,0.1,0.1,0.1,0.2c0,0.1,0,0.1,0,0.2v3c0,0.2,0,0.2,0,0.3c0,0,0.1,0.1,0.2,0.1c0.1,0,0.1,0,0.2,0s0.1,0,0.1,0.1
		c0.1,0.1,0.1,0.2,0.1,0.5c0,0.3,0,0.4-0.1,0.5c-0.1,0.1-0.4,0.1-0.8,0c-0.3,0-0.5-0.2-0.6-0.3c-0.1-0.2-0.2-0.5-0.2-1V11.8z"/>
	<path class="st1" d="M37.9,14.1c0,0.3-0.1,0.5-0.2,0.6c-0.1,0.1-0.3,0.2-0.4,0.2h-1.5c0,0.1,0.1,0.2,0.2,0.3
		c0.1,0.1,0.3,0.1,0.4,0.1c0.2,0,0.4,0,0.6-0.1l0.1,0c0.1,0,0.2-0.1,0.3-0.1c0.1,0,0.3,0.1,0.4,0.3c0.1,0.1,0.1,0.2,0.1,0.3
		c0,0.4-0.5,0.6-1.4,0.6c-0.3,0-0.6-0.1-0.8-0.2c-0.2-0.1-0.4-0.3-0.6-0.4c-0.3-0.3-0.4-0.7-0.4-1.2c0-0.5,0.2-1,0.5-1.3
		c0.3-0.3,0.8-0.5,1.3-0.5c0.6,0,1,0.2,1.3,0.6C37.8,13.6,37.9,13.9,37.9,14.1z M36.6,14.3c0.2,0,0.2-0.1,0.2-0.2
		c0-0.1,0-0.2-0.1-0.2s-0.2-0.1-0.3-0.1S36.1,13.8,36,14c-0.1,0.1-0.2,0.2-0.2,0.4H36.6z"/>
	<path class="st1" d="M40.5,13.2c0-0.2,0.2-0.4,0.5-0.4c0.2,0,0.3,0,0.4,0c0.1,0,0.1,0.1,0.2,0.1c0,0.1,0.1,0.1,0.1,0.2
		c0,0,0,0.1,0,0.2v2.2c0,0.1,0,0.2,0,0.2s0,0.1-0.1,0.2c-0.1,0.1-0.2,0.2-0.4,0.2c-0.2,0-0.4,0-0.5-0.1c-0.1-0.1-0.1-0.1-0.1-0.3
		c-0.2,0.2-0.4,0.3-0.8,0.3s-0.7-0.2-1-0.5c-0.3-0.3-0.5-0.7-0.5-1.2s0.2-0.8,0.5-1.2c0.3-0.3,0.7-0.5,1-0.5c0.1,0,0.3,0,0.4,0.1
		c0.1,0.1,0.2,0.1,0.2,0.1C40.4,13.1,40.5,13.2,40.5,13.2z M39.3,14.5c0,0.1,0.1,0.3,0.2,0.4c0.1,0.1,0.2,0.2,0.4,0.2
		s0.3-0.1,0.4-0.2c0.1-0.1,0.2-0.2,0.2-0.4s-0.1-0.3-0.1-0.4C40.2,14,40.1,14,39.9,14s-0.3,0.1-0.4,0.2
		C39.4,14.3,39.3,14.4,39.3,14.5z"/>
	<path class="st1" d="M44.4,12.9c0.1,0,0.1,0.1,0.2,0.1c0.1,0.1,0.1,0.2,0.1,0.3c0,0.1,0,0.3-0.1,0.4S44.4,14,44.2,14
		c-0.1,0-0.2,0-0.2-0.1c-0.1,0-0.2-0.1-0.3-0.1c-0.1,0-0.2,0-0.3,0.1c-0.1,0.1-0.1,0.2-0.1,0.3v1.3c0,0.1,0,0.2,0,0.2
		c0,0,0,0.1-0.1,0.2c-0.1,0.1-0.2,0.2-0.5,0.2c-0.2,0-0.3,0-0.4-0.1c-0.1-0.1-0.1-0.2-0.1-0.3c0,0,0-0.1,0-0.2v-2.2
		c0-0.1,0-0.2,0-0.2c0,0,0-0.1,0.1-0.2c0.1-0.1,0.2-0.2,0.5-0.2c0.3,0,0.4,0,0.5,0.1c0,0.1,0.1,0.1,0.1,0.2c0,0,0.1-0.1,0.1-0.1
		c0,0,0.1-0.1,0.3-0.2c0.1-0.1,0.2-0.1,0.3-0.1s0.2,0,0.3,0S44.3,12.9,44.4,12.9z"/>
	<path class="st1" d="M46.9,12.9c0.4,0,0.8,0.2,1.1,0.5c0.3,0.3,0.4,0.7,0.4,1.2v1.1c0,0.1,0,0.2,0,0.2c0,0,0,0.1-0.1,0.2
		c-0.1,0.1-0.2,0.2-0.5,0.2c-0.3,0-0.5-0.1-0.5-0.2c0-0.1,0-0.2,0-0.3v-1.1c0-0.2,0-0.3-0.1-0.4C47,14,46.9,14,46.7,14
		s-0.3,0.1-0.4,0.2c-0.1,0.1-0.2,0.2-0.2,0.4v1.1c0,0.1,0,0.2,0,0.2c0,0,0,0.1-0.1,0.2c-0.1,0.1-0.2,0.2-0.5,0.2
		c-0.3,0-0.4-0.1-0.5-0.2c0-0.1,0-0.1-0.1-0.2c0,0,0-0.1,0-0.2v-2.3c0-0.1,0-0.2,0-0.2c0,0,0-0.1,0.1-0.2c0.1-0.1,0.2-0.2,0.5-0.2
		c0.3,0,0.4,0,0.5,0.1c0,0.1,0.1,0.2,0.1,0.3c0,0,0.1-0.1,0.1-0.1c0.1-0.1,0.1-0.1,0.2-0.1C46.6,12.9,46.7,12.9,46.9,12.9z"/>
	<path class="st1" d="M52.7,13.2c0-0.2,0.2-0.4,0.5-0.4c0.2,0,0.3,0,0.4,0s0.1,0.1,0.2,0.1c0,0.1,0.1,0.1,0.1,0.2c0,0,0,0.1,0,0.2
		v2.2c0,0.1,0,0.2,0,0.2c0,0,0,0.1-0.1,0.2c-0.1,0.1-0.2,0.2-0.4,0.2s-0.4,0-0.5-0.1c-0.1-0.1-0.1-0.1-0.1-0.3
		c-0.2,0.2-0.4,0.3-0.8,0.3s-0.7-0.2-1-0.5c-0.3-0.3-0.5-0.7-0.5-1.2s0.2-0.8,0.5-1.2c0.3-0.3,0.7-0.5,1-0.5c0.1,0,0.3,0,0.4,0.1
		c0.1,0.1,0.2,0.1,0.2,0.1C52.6,13.1,52.7,13.2,52.7,13.2z M51.5,14.5c0,0.1,0.1,0.3,0.2,0.4c0.1,0.1,0.2,0.2,0.4,0.2
		s0.3-0.1,0.4-0.2c0.1-0.1,0.2-0.2,0.2-0.4s0-0.3-0.1-0.4C52.4,14,52.3,14,52.1,14s-0.3,0.1-0.4,0.2C51.6,14.3,51.5,14.4,51.5,14.5z
		"/>
	<path class="st1" d="M56.2,12.9c0.4,0,0.7,0.2,1,0.5c0.3,0.3,0.5,0.7,0.5,1.2s-0.2,0.8-0.5,1.2c-0.3,0.3-0.7,0.5-1,0.5
		c-0.4,0-0.6-0.1-0.8-0.3c0,0.2-0.2,0.3-0.5,0.3c-0.3,0-0.4-0.1-0.5-0.2c0-0.1,0-0.1-0.1-0.2c0,0,0-0.1,0-0.2v-3.8
		c0-0.1,0-0.2,0-0.2c0,0,0-0.1,0.1-0.2c0.1-0.1,0.2-0.2,0.5-0.2c0.3,0,0.4,0.1,0.5,0.2c0,0.1,0.1,0.1,0.1,0.2c0,0,0,0.1,0,0.2v1.3
		C55.6,13,55.9,12.9,56.2,12.9z M55.6,14.9c0.1,0.1,0.2,0.2,0.4,0.2s0.3-0.1,0.4-0.2c0.1-0.1,0.2-0.2,0.2-0.4c0-0.1-0.1-0.3-0.2-0.4
		C56.3,14,56.2,14,56,14c-0.2,0-0.3,0.1-0.4,0.2c-0.1,0.1-0.2,0.2-0.2,0.4S55.5,14.8,55.6,14.9z"/>
	<path class="st1" d="M58.5,13.3c0.4-0.3,0.8-0.5,1.2-0.5s0.9,0.2,1.2,0.5c0.4,0.3,0.5,0.7,0.5,1.3c0,0.4-0.1,0.7-0.3,0.9
		s-0.4,0.5-0.7,0.6c-0.3,0.1-0.5,0.2-0.8,0.2c-0.3,0-0.6-0.1-0.8-0.2s-0.5-0.3-0.7-0.6S58,14.9,58,14.5C58,14,58.2,13.6,58.5,13.3z
		 M59.3,15c0.1,0.1,0.3,0.2,0.4,0.2s0.3-0.1,0.4-0.2s0.2-0.3,0.2-0.5c0-0.2-0.1-0.4-0.2-0.5c-0.1-0.1-0.3-0.2-0.4-0.2
		c-0.2,0-0.3,0.1-0.4,0.2c-0.1,0.1-0.2,0.3-0.2,0.5C59.1,14.7,59.2,14.9,59.3,15z"/>
	<path class="st1" d="M63.4,16.2c-0.4,0-0.8-0.2-1.1-0.5c-0.3-0.3-0.4-0.7-0.4-1.2v-1.1c0-0.1,0-0.2,0-0.2c0,0,0-0.1,0.1-0.2
		c0.1-0.1,0.2-0.2,0.5-0.2c0.3,0,0.5,0.1,0.5,0.2c0,0.1,0,0.2,0,0.3v1.1c0,0.2,0,0.3,0.1,0.4c0.1,0.1,0.2,0.1,0.4,0.1
		s0.3-0.1,0.4-0.2s0.2-0.2,0.2-0.4v-1.1c0-0.1,0-0.2,0-0.2c0,0,0-0.1,0.1-0.2c0.1-0.1,0.2-0.2,0.5-0.2c0.3,0,0.4,0.1,0.5,0.2
		c0,0.1,0,0.1,0.1,0.2c0,0,0,0.1,0,0.2v2.3c0,0.1,0,0.2,0,0.2c0,0,0,0.1-0.1,0.2c-0.1,0.1-0.2,0.2-0.5,0.2c-0.3,0-0.4-0.1-0.5-0.2
		c0-0.1-0.1-0.2-0.1-0.3c0,0-0.1,0.1-0.1,0.1s-0.1,0.1-0.2,0.1C63.7,16.2,63.6,16.2,63.4,16.2z"/>
	<path class="st1" d="M67.7,14l-0.4,0v0.9c0,0.1,0,0.2,0.1,0.2c0,0.1,0.1,0.1,0.2,0.1s0.2,0,0.2,0s0.1,0,0.2,0.1
		c0.1,0.1,0.1,0.2,0.1,0.4c0,0.3-0.1,0.4-0.2,0.5c-0.1,0-0.1,0-0.2,0.1s-0.1,0-0.2,0c-0.4,0-0.8-0.1-1-0.3c-0.2-0.2-0.3-0.5-0.3-1
		V14c-0.1,0-0.2,0-0.3,0s-0.2,0-0.2-0.1s-0.1-0.2-0.1-0.4s0-0.3,0-0.4c0-0.1,0.1-0.1,0.1-0.2c0.1-0.1,0.2-0.1,0.3-0.1l0.2,0v-0.7
		c0-0.1,0-0.2,0-0.2c0,0,0-0.1,0.1-0.2c0.1-0.1,0.2-0.2,0.5-0.2c0.3,0,0.5,0.1,0.5,0.2c0,0.1,0,0.2,0,0.3v0.6c0.2,0,0.3,0,0.4,0
		s0.2,0,0.2,0s0.1,0,0.2,0.1c0.1,0.1,0.2,0.2,0.2,0.5c0,0.3-0.1,0.4-0.2,0.5c-0.1,0-0.1,0-0.2,0.1S67.8,14,67.7,14z"/>
	<path class="st1" d="M71.8,16.2c-0.4,0-0.8-0.2-1.1-0.5c-0.3-0.3-0.4-0.7-0.4-1.2v-1.1c0-0.1,0-0.2,0-0.2c0,0,0-0.1,0.1-0.2
		c0.1-0.1,0.2-0.2,0.5-0.2c0.3,0,0.5,0.1,0.5,0.2c0,0.1,0,0.2,0,0.3v1.1c0,0.2,0,0.3,0.1,0.4c0.1,0.1,0.2,0.1,0.4,0.1
		s0.3-0.1,0.4-0.2s0.2-0.2,0.2-0.4v-1.1c0-0.1,0-0.2,0-0.2c0,0,0-0.1,0.1-0.2c0.1-0.1,0.2-0.2,0.5-0.2c0.3,0,0.4,0.1,0.5,0.2
		c0,0.1,0,0.1,0.1,0.2c0,0,0,0.1,0,0.2v2.3c0,0.1,0,0.2,0,0.2c0,0,0,0.1-0.1,0.2c-0.1,0.1-0.2,0.2-0.5,0.2c-0.3,0-0.4-0.1-0.5-0.2
		c0-0.1-0.1-0.2-0.1-0.3c0,0-0.1,0.1-0.1,0.1s-0.1,0.1-0.2,0.1C72.1,16.2,71.9,16.2,71.8,16.2z"/>
	<path class="st1" d="M74.2,15.9c-0.1-0.1-0.1-0.1-0.1-0.2c0-0.1,0.1-0.3,0.2-0.5c0-0.1,0.1-0.1,0.2-0.1c0.1,0,0.2,0.1,0.4,0.2
		c0.2,0.1,0.3,0.2,0.5,0.2c0.3,0,0.4-0.1,0.4-0.2c0-0.1-0.1-0.1-0.4-0.2c-0.3,0-0.5-0.1-0.8-0.3c-0.1-0.1-0.2-0.2-0.3-0.4
		c-0.1-0.2-0.1-0.4-0.1-0.6c0-0.7,0.5-1,1.4-1c0.3,0,0.6,0.1,0.9,0.2c0.1,0.1,0.2,0.2,0.2,0.3s0,0.2-0.1,0.4
		c-0.1,0.1-0.2,0.2-0.3,0.2c-0.1,0-0.1,0-0.3-0.1c-0.1-0.1-0.3-0.1-0.4-0.1c-0.3,0-0.4,0-0.4,0.1c0,0.1,0.1,0.2,0.4,0.2
		c0.3,0,0.6,0.1,0.8,0.2c0.1,0.1,0.2,0.2,0.3,0.3c0.1,0.1,0.1,0.3,0.1,0.6c0,0.2,0,0.4-0.1,0.6s-0.2,0.3-0.3,0.3
		c-0.3,0.1-0.6,0.2-1,0.2S74.5,16.2,74.2,15.9z"/>
</g>
</svg>
